<svg width="224" height="224" viewBox="0 0 224 224" fill="none" xmlns="http://www.w3.org/2000/svg">
<rect width="224" height="224" fill="#E5E5E5"/>
<path d="M136.351 198.333C170.583 198.333 198.333 170.583 198.333 136.351C198.333 102.119 170.583 74.3679 136.351 74.3679C102.119 74.3679 74.368 102.119 74.368 136.351C74.368 170.583 102.119 198.333 136.351 198.333Z" stroke="#1AA090" stroke-width="12" stroke-linecap="round" stroke-linejoin="round"/>
<path d="M117.203 160.039C119.039 162.356 121.405 164.199 124.101 165.412C126.797 166.625 129.745 167.173 132.697 167.011H141.997C146.107 167.011 150.048 165.378 152.954 162.472C155.86 159.566 157.493 155.625 157.493 151.515C157.493 147.405 155.86 143.464 152.954 140.558C150.048 137.652 146.107 136.019 141.997 136.019H131.922C127.812 136.019 123.871 134.387 120.965 131.481C118.059 128.575 116.426 124.633 116.426 120.524C116.426 116.414 118.059 112.473 120.965 109.567C123.871 106.661 127.812 105.028 131.922 105.028H141.223C144.193 104.691 147.2 105.16 149.926 106.387C152.653 107.614 154.998 109.553 156.716 112M136.57 96.5067V173.983M76.9767 115.229C74.8858 113.27 73.2211 110.901 72.0866 108.27C70.9521 105.639 70.372 102.802 70.3827 99.9367V79.7907C70.3716 77.0405 70.9051 74.3153 71.9526 71.7723C73.0001 69.2293 74.5408 66.9189 76.4857 64.9744C78.4306 63.0299 80.7414 61.4898 83.2846 60.4429C85.8278 59.3959 88.5531 58.863 91.3033 58.8747C94.4103 58.9323 97.4691 59.6533 100.275 60.9893C103.08 62.3253 105.568 64.2456 107.571 66.6214M61.0867 81.34H87.43M61.0867 96.8334H87.43" stroke="#1AA090" stroke-width="12" stroke-linecap="round" stroke-linejoin="round"/>
<path d="M74.76 148.279C63.8486 145.959 53.7654 140.737 45.5742 133.164C37.383 125.592 31.3872 115.949 28.2194 105.253C25.0516 94.5564 24.8291 83.2036 27.5755 72.3916C30.3218 61.5796 35.9351 51.7091 43.8234 43.8214C51.7117 35.9336 61.5825 30.3209 72.3947 27.5752C83.2069 24.8296 94.5596 25.0528 105.256 28.2213C115.951 31.3898 125.594 37.3861 133.166 45.5778C140.738 53.7695 145.959 63.853 148.279 74.7646" stroke="#1AA090" stroke-width="12" stroke-linecap="round" stroke-linejoin="round"/>
</svg>
