<svg width="224" height="224" viewBox="0 0 224 224" fill="none" xmlns="http://www.w3.org/2000/svg">
<path d="M176.162 79.9155L180.586 75.5265L184.03 78.9425L194.446 68.6105C194.938 68.1239 195.328 67.5448 195.594 66.9065C195.86 66.2682 195.998 65.5834 195.998 64.8918C195.998 64.2001 195.86 63.5154 195.594 62.877C195.328 62.2387 194.938 61.6596 194.446 61.173L185.07 51.877C184.072 50.8902 182.726 50.3367 181.323 50.3367C179.92 50.3367 178.573 50.8902 177.576 51.877L167.157 62.209L170.601 65.625L166.177 70.0105C152.313 58.3744 135.061 51.529 116.991 50.4945V46.3575C125.699 44.149 132.153 36.3335 132.153 27.0025C132.16 15.953 123.134 7 112 7C100.863 7 91.8366 15.953 91.8366 26.999C91.8366 36.3335 98.2871 44.142 106.999 46.354V50.491C88.9281 51.526 71.6758 58.3727 57.8131 70.0105L53.3891 65.6215L56.8261 62.2055L46.4101 51.8735C45.4123 50.8875 44.0661 50.3346 42.6633 50.3346C41.2605 50.3346 39.9143 50.8875 38.9166 51.8735L29.5436 61.1695C29.0516 61.6558 28.661 62.2349 28.3944 62.8733C28.1279 63.5116 27.9906 64.1965 27.9906 64.8882C27.9906 65.58 28.1279 66.2649 28.3944 66.9032C28.661 67.5416 29.0516 68.1207 29.5436 68.607L39.9631 78.946L43.4036 75.5265L47.8241 79.9155C35.4691 94.43 28.0001 113.179 28.0001 133.665C28.0001 179.697 65.6111 217 112 217C158.389 217 196 179.697 196 133.665C196 113.179 188.528 94.4265 176.162 79.9155ZM103.551 23.492V38.521C101.714 37.2119 100.216 35.4838 99.1809 33.48C98.1455 31.4762 97.6027 29.2545 97.5976 26.999C97.5976 19.11 104.048 12.7155 112 12.7155C119.949 12.7155 126.396 19.11 126.396 26.999C126.396 31.7485 124.037 35.924 120.442 38.521L120.446 23.492C120.446 18.3995 103.555 18.3995 103.551 23.492ZM112 205.891C71.7956 205.891 39.2001 173.558 39.2001 133.665C39.2001 93.779 71.7956 61.446 112 61.446C152.201 61.446 184.797 93.7825 184.797 133.665C184.797 173.558 152.201 205.891 112 205.891Z" fill="#1AA090"/>
<path d="M112 67.0005V72.5585H109.63V91.3605H112V124.26C106.764 124.26 102.518 128.467 102.518 133.665C102.518 138.862 106.764 143.073 112 143.073C113.106 143.073 114.159 142.849 115.15 142.499L150.577 171.573L150.573 171.566L159.74 180.579C171.769 168.536 179.197 151.959 179.197 133.665C179.197 96.852 149.11 67.0005 112 67.0005ZM159.435 170.898L121.467 133.588C121.451 131.128 120.463 128.775 118.72 127.039V74.0355C126.381 74.879 133.616 77.1645 140.15 80.591L136.003 87.7135L140.105 90.062L144.252 82.95C151.848 87.7203 158.291 94.1154 163.117 101.675L155.953 105.78L158.322 109.851L165.48 105.759C169.677 113.654 172.033 122.396 172.371 131.33H154.647V136.02H172.382C172.055 144.961 169.707 153.712 165.515 161.616L158.322 157.493L155.953 161.563L163.131 165.679C161.983 167.464 160.779 169.221 159.435 170.898ZM109.63 175.976H114.366V194.778H109.63V175.976ZM50.3965 131.323H69.3525V136.013H50.3965V131.323ZM79.1455 81.921L83.8845 90.0585L87.99 87.71L83.251 79.5725L79.1455 81.921ZM68.0435 105.777L59.836 101.076L57.4665 105.15L65.674 109.854L68.0435 105.777ZM57.4665 162.19L59.836 166.264L68.0435 161.556L65.674 157.486L57.4665 162.19ZM79.142 185.419L83.2475 187.768L87.9865 179.623L83.8845 177.271L79.142 185.419ZM136.006 179.623L140.745 187.768L144.854 185.419L140.108 177.271L136.006 179.623Z" fill="#1AA090"/>
</svg>
